inDegrees=no
num_controls=7
num_derivatives=13
num_iterations=113
num_multipliers=7
num_parameters=0
num_slacks=7
num_states=26
objective=0.477064
objective_accelerations=0.044118
objective_balance=0.003673
objective_effort=0.040535
objective_height=0.383071
objective_ligament=0.005668
solver_duration=1553.850428
status=Solve_Succeeded
success=true
DataType=double
version=3
OpenSimVersion=4.5
endheader
time	/jointset/ground_pelvis/pelvis_tilt/value	/jointset/ground_pelvis/pelvis_tx/value	/jointset/ground_pelvis/pelvis_ty/value	/jointset/hip_l/hip_flexion_l/value	/jointset/hip_l/hip_adduction_l/value	/jointset/hip_l/hip_rotation_l/value	/jointset/back/lumbar_extension/value	/jointset/patellofemoral_l/patellar_flexion_l/value	/jointset/knee_l/knee_flexion_l/value	/jointset/knee_l/knee_adduction_l/value	/jointset/knee_l/knee_rotation_l/value	/jointset/ankle_l/ankle_angle_l/value	/jointset/subtalar_l/subtalar_angle_l/value	/jointset/ground_pelvis/pelvis_tilt/speed	/jointset/ground_pelvis/pelvis_tx/speed	/jointset/ground_pelvis/pelvis_ty/speed	/jointset/hip_l/hip_flexion_l/speed	/jointset/hip_l/hip_adduction_l/speed	/jointset/hip_l/hip_rotation_l/speed	/jointset/back/lumbar_extension/speed	/jointset/patellofemoral_l/patellar_flexion_l/speed	/jointset/knee_l/knee_flexion_l/speed	/jointset/knee_l/knee_adduction_l/speed	/jointset/knee_l/knee_rotation_l/speed	/jointset/ankle_l/ankle_angle_l/speed	/jointset/subtalar_l/subtalar_angle_l/speed	/forceset/tau_hip_flexion_l	/forceset/tau_hip_adduction_l	/forceset/tau_hip_rotation_l	/forceset/tau_knee_flexion_l	/forceset/tau_ankle_angle_l	/forceset/tau_subtalar_angle_l	/forceset/tau_lumbar_extension	lambda_cid13_p0	lambda_cid13_p1	lambda_cid13_p2	lambda_cid13_p3	lambda_cid13_p4	lambda_cid13_p5	lambda_cid14_p0	/jointset/ground_pelvis/pelvis_tilt/accel	/jointset/ground_pelvis/pelvis_tx/accel	/jointset/ground_pelvis/pelvis_ty/accel	/jointset/hip_l/hip_flexion_l/accel	/jointset/hip_l/hip_adduction_l/accel	/jointset/hip_l/hip_rotation_l/accel	/jointset/back/lumbar_extension/accel	/jointset/patellofemoral_l/patellar_flexion_l/accel	/jointset/knee_l/knee_flexion_l/accel	/jointset/knee_l/knee_adduction_l/accel	/jointset/knee_l/knee_rotation_l/accel	/jointset/ankle_l/ankle_angle_l/accel	/jointset/subtalar_l/subtalar_angle_l/accel	gamma_cid13_p0	gamma_cid13_p1	gamma_cid13_p2	gamma_cid13_p3	gamma_cid13_p4	gamma_cid13_p5	gamma_cid14_p0
0.5	-0.0958258549982824	-0.04281807788092262	0.806681030597806	0.9319801425751512	-0.3300525428979395	-0.0784964947225892	-0.79134005688733	0.9189722331044891	0.9189722331044261	-0.1049488863823106	-0.1744479653403013	0.1465228014782524	0.01197508120695736	-0.1306040370959248	-0.1601802168961318	-0.4150220281300164	1.597909360777546	-0.03078172647287763	0.5652292434665984	-0.8387460053409908	1.771821586558383	1.771821586558459	0.1439444730372189	0.0001564019751136176	0.4247765921778621	0.1104103632705427	-0.2726455617751654	0.02699322861143164	-0.004616375074710687	-0.2474857405269755	0.08973957003335348	0.04029638462691492	0.3288229312244549	-15.51981510421817	-16.17396516497713	3.712724676012457	-9.570921066739647	-702.3556484257637	-69.94503989718959	-9.84975289368999	0.2857220585373644	0.6813823230732446	-0.1825344866940068	-1.537919896180577	0.332733113074233	-0.5070710595538466	1.924106845833383	-1.438996659142966	-1.438996659142762	-0.2264612116502111	-0.007022973016649716	-0.2563602227319759	0.3401138710082109	-2.493475722524533e-07	-1.573546862151544e-07	1.478743786391945e-06	1.378453163319932e-07	-2.734988204727627e-07	-8.72558237967178e-08	-2.130073622380889e-07
0.51	-0.09711742427703941	-0.04438576769838988	0.80252261454333	0.9478799288807546	-0.33034453567809	-0.072868710592641	-0.7996304016547086	0.9366157493542857	0.9366157493542606	-0.1035232586773553	-0.1744466341783049	0.1507567505401267	0.01309494424180197	-0.1276897919095392	-0.1533547097913243	-0.4165654687090745	1.581824754668484	-0.02762456465537011	0.5602600559632501	-0.8192327860420625	1.756630338495769	1.756630338495806	0.1411798329786929	0.0001083370981097371	0.4219472630096534	0.1135365248478574	-0.2788803311411822	0.02733390233978557	-0.004762308684328184	-0.2511728249295684	0.08891137766706796	0.04032840098925729	0.3351104251721752	-16.05138694453307	-16.02543841407206	3.609822310494394	-9.40807680554636	-706.9554825509254	-69.73947847231138	-9.131923621397458	0.2972564275482142	0.6836184431049881	-0.125944515647645	-1.677233592080761	0.3058464275430775	-0.5021645663489916	1.978453785688905	-1.596846098846429	-1.596846098852489	-0.3016435642672396	-0.003632500156962457	-0.306110418874368	0.2948567548975136	-2.391482797866734e-07	-1.435837198454319e-07	1.440917063333695e-06	1.344482723542061e-07	-2.591970045676795e-07	-5.721208700077658e-08	-2.07294656901403e-07
0.52	-0.09837925496815657	-0.04588510573702478	0.7983516249486361	0.9636121686005079	-0.3306052290977761	-0.0672926827318505	-0.8077229093663436	0.9540998216796535	0.9540998216796589	-0.1021253130052501	-0.1744457705160984	0.154960428079317	0.01424526678318059	-0.1246563195688068	-0.146509861129656	-0.4175367361735708	1.56440004360695	-0.02452185437969795	0.5548779896349548	-0.7991785941924912	1.739932801672124	1.739932801672119	0.1384080664676291	6.290201651817882e-05	0.4187222876410843	0.116502264577349	-0.2851151005071983	0.02767457606813642	-0.004908242293970116	-0.2548599093321607	0.08808318530078109	0.04036041735159596	0.3413979191198971	-16.58517992589654	-15.87674962123071	3.507154588537576	-9.289474413753535	-711.6203830669117	-69.58517038877449	-8.416125711802	0.3095674894066122	0.6852506344454664	-0.06809986378166683	-1.80594088667523	0.321842804707155	-0.5896468245432529	2.032301355961938	-1.740254411349335	-1.740254411349381	-0.2278865021577889	-0.006497013934193848	-0.3354894628039374	0.3080295014436066	-2.331566625305479e-07	-1.886358494225918e-07	1.384257129738718e-06	1.230516123217521e-07	-2.496890511720621e-07	-4.446211765325547e-08	-2.067098924002545e-07
0.53	-0.09961016887351921	-0.04731598829203384	0.7941737943702826	0.9791636052492786	-0.3308352089909805	-0.06177265684801947	-0.8156123966833101	0.9714095257451724	0.9714095257451709	-0.1007550321603853	-0.1744455257582102	0.1591298869212286	0.01542438431187835	-0.1215084751629528	-0.139672045803515	-0.4179329639092648	1.54567734955207	-0.02148512167927037	0.5490678530064764	-0.7786492820945117	1.72176801150992	1.721768011509907	0.1356431660172672	-1.150138622493482e-05	0.4151042809751861	0.119290801141509	-0.2911070115746787	0.02798928830312932	-0.005006488262487336	-0.2584997556449253	0.08702263908462241	0.0402438272169849	0.3473881801821276	-17.19417431713005	-15.6427315693108	3.382175369190007	-8.986052166653685	-716.1240809079795	-69.3088671301782	-7.705564277832266	0.3200692155022822	0.6822610052851499	-0.01097082924305373	-1.936952464630138	0.2927628283995298	-0.5857866268926221	2.073684202536718	-1.890550026412637	-1.890550026413911	-0.301548954578539	-0.007276016099700411	-0.3847382228409283	0.2595748927441734	-2.239621601250437e-07	-1.915157334379969e-07	1.340338769230972e-06	1.173203548462799e-07	-2.374149377440309e-07	-2.092967365266985e-08	-2.022589530270247e-07
0.54	-0.1008090690749536	-0.04867864988906397	0.7899948841944162	0.9945215111975566	-0.331035186692044	-0.05631255023945069	-0.8232945032661317	0.9885303901675192	0.9885303901675058	-0.09941255174764538	-0.1744458978368788	0.1632612093056096	0.01663044903798608	-0.1182535787840143	-0.1328656695338667	-0.4177526556761499	1.525693903507759	-0.01852141595128279	0.5428941345822982	-0.7577024473637124	1.702164873037447	1.702164873037426	0.1328479800427793	-6.046529518058402e-05	0.4110949961349625	0.1218917040593485	-0.2970989226421561	0.02830400053812138	-0.005104734231019414	-0.2621396019576889	0.08596209286846296	0.04012723708237279	0.3533784412443612	-17.8051533251763	-15.41091591877316	3.260461027376589	-8.729704160617258	-720.684122437162	-69.08611906046067	-7.022236564820941	0.3309778840234056	0.6789628231469845	0.04720732998008923	-2.05809128456145	0.3072374102191485	-0.6623631836832318	2.115805882525823	-2.02792407340313	-2.027924073403058	-0.2339436069829977	-0.00140911517670571	-0.4137450976689316	0.2705027721795062	-2.112240401074608e-07	-1.477369627893323e-07	1.310517468309096e-06	1.178572023274683e-07	-2.220803919397118e-07	1.453231677258302e-08	-1.935305435825559e-07
